<?xml version="1.0" standalone="no"?><!DOCTYPE svg PUBLIC "-//W3C//DTD SVG 1.1//EN" "http://www.w3.org/Graphics/SVG/1.1/DTD/svg11.dtd"><svg t="1713323193181" class="icon" viewBox="0 0 1024 1024" version="1.1" xmlns="http://www.w3.org/2000/svg" p-id="6662" xmlns:xlink="http://www.w3.org/1999/xlink" width="200" height="200"><path d="M87.378 816C76.662 816 68 807.338 68 796.621V132.38C68 121.662 76.662 113 87.378 113h154.937c10.716 0 19.378 8.662 19.378 19.379V796.62c0 10.717-8.662 19.379-19.378 19.379H87.378z m360.597-3.215c1.607-3.93 3.482-10.36 3.482-13.663 0-20.898-17.681-37.865-39.381-37.865h-2.947c-29.29 0-53.313-22.237-59.653-55.28v-0.089c-1.16-5.894-6.698-36.436-6.698-62.155 0-26.523 5.984-58.583 6.698-62.156 6.43-33.131 30.362-55.279 59.653-55.279h3.036c21.7 0 39.382-16.967 39.382-37.865 0-3.215-1.876-9.823-3.483-13.752-6.43-14.468-7.59-30.9-3.126-46.35 4.376-15.449 14.11-28.844 27.148-37.775l2.232-1.607L492 379.483V132.379c0-10.717-8.662-19.379-19.378-19.379H317.596c-10.716 0-19.379 8.662-19.379 19.379V796.62c0 10.717 8.663 19.379 19.379 19.379h129.04l1.339-3.215z" fill="#286AC3" p-id="6663"></path><path d="M950.928 588.195c-3.125-16.171-13.037-26.535-25.092-26.357h-2.5c-41.432 0-75.096-33.057-75.096-73.62 0-13.402 6.518-28.055 6.518-28.144 6.43-14.117 1.518-31.45-11.43-40.295l-0.714-0.447-72.238-39.311-0.804-0.358c-4.465-1.876-9.197-2.77-13.93-2.77-10.269 0-20.359 4.021-26.967 10.722-8.84 8.934-36.61 32.075-59.112 32.075-22.681 0-50.63-23.587-59.47-32.7-6.697-6.88-16.787-10.99-27.146-10.99-4.732 0-9.375 0.893-13.75 2.68l-0.804 0.358-74.829 40.294-0.714 0.537c-12.948 8.845-17.948 26.178-11.52 40.205 0.09 0.179 6.52 14.831 6.52 28.233 0 40.652-33.754 73.62-75.097 73.62h-2.59c-12.054-0.267-21.966 10.097-25.091 26.358-0.268 1.25-6.072 31.628-6.072 55.483 0 23.855 5.804 54.233 6.072 55.484 3.125 15.992 12.769 26.356 24.645 26.356h2.947c41.432 0 75.096 33.058 75.096 73.621 0 13.402-6.518 28.054-6.518 28.144-6.43 14.116-1.518 31.45 11.43 40.295l0.714 0.446 70.899 38.865 0.714 0.358c4.376 1.876 9.108 2.77 13.93 2.77 10.448 0 20.538-4.2 27.146-11.258 8.304-8.845 37.235-34.13 60.362-34.13 23.306 0 51.79 25.195 60.81 34.845C733.854 906.71 744.034 911 754.57 911c4.643 0 9.286-0.893 13.662-2.68l0.803-0.358 73.49-39.848 0.713-0.536c12.948-8.845 17.86-26.178 11.52-40.205-0.09-0.179-6.52-14.832-6.52-28.144 0-40.652 33.665-73.62 75.097-73.62h2.5c12.055 0.267 21.967-10.097 25.092-26.268 0.268-1.251 6.072-31.628 6.072-55.484 0-24.034-5.804-54.41-6.072-55.662zM666.795 741.423c-55.184 0-100.099-43.958-100.099-98.102 0-54.054 44.915-98.1 100.099-98.1 55.183 0 100.098 43.957 100.098 98.1-0.09 54.054-45.004 98.102-100.098 98.102z" fill="#03C5FF" p-id="6664"></path><path d="M563.494 343.799c6.073-1.698 12.324-2.503 18.664-2.503h0.268c20.094 0 39.383 7.955 52.778 21.807 9.913 10.189 27.238 21.36 33.846 21.897 6.52-0.447 23.755-11.44 33.668-21.45 13.395-13.584 32.506-21.36 52.42-21.36h0.268c7.68 0 15.271 1.251 22.594 3.664l-103.591-222.63c-4.466-9.741-15.986-13.942-25.72-9.384l-140.473 65.422c-9.734 4.468-13.932 15.998-9.377 25.74l64.655 138.797z" fill="#286AC3" p-id="6665"></path></svg>